<?xml version="1.0" encoding="UTF-8"?>
<svg version="1.1" viewBox="0 0 1052.4 744.09" xmlns="http://www.w3.org/2000/svg">
 <g transform="translate(0 -308.27)">
  <rect x="-1.5945" y="305.63" width="1050.4" height="753.33" ry="9.6112" fill="#666" fill-rule="evenodd" opacity=".54" stroke="#0082c8" stroke-dasharray="0.94387518, 3.77550072" stroke-linecap="round" stroke-linejoin="round" stroke-width=".94388"/>
  <g transform="matrix(1 0 0 .57108 0 449.4)" fill="#f9f9f9" fill-rule="evenodd" stroke="#0082c8" stroke-dasharray="0.83100373, 3.3240149" stroke-linecap="round" stroke-linejoin="round" stroke-width=".831">
   <rect transform="translate(0 308.27)" x="480.83" y="165.28" width="33.335" height="573.77" ry="7.4492" opacity=".54"/>
   <rect transform="translate(0 308.27)" x="480.83" y="165.28" width="33.335" height="573.77" ry="7.4492" opacity=".54"/>
   <rect transform="translate(0 308.27)" x="480.83" y="165.28" width="33.335" height="573.77" ry="7.4492" opacity=".54"/>
  </g>
  <g transform="translate(4,-24)" fill="none" stroke="#fdfeff" stroke-linecap="round" stroke-linejoin="round" stroke-width="5">
   <g transform="translate(0,232)">
    <rect x="6.0609" y="489.71" width="234.36" height="115.16" rx="0" ry="0" opacity=".54"/>
    <rect x="6.0609" y="489.71" width="234.36" height="115.16" rx="0" ry="0" opacity=".54"/>
    <rect x="6.0609" y="489.71" width="234.36" height="115.16" rx="0" ry="0" opacity=".54"/>
   </g>
   <g transform="translate(0,346)">
    <rect x="6.0609" y="489.71" width="234.36" height="115.16" rx="0" ry="0" opacity=".54"/>
    <rect x="6.0609" y="489.71" width="234.36" height="115.16" rx="0" ry="0" opacity=".54"/>
    <rect x="6.0609" y="489.71" width="234.36" height="115.16" rx="0" ry="0" opacity=".54"/>
   </g>
   <g transform="translate(0,462)">
    <rect x="6.0609" y="489.71" width="234.36" height="115.16" rx="0" ry="0" opacity=".54"/>
    <rect x="6.0609" y="489.71" width="234.36" height="115.16" rx="0" ry="0" opacity=".54"/>
    <rect x="6.0609" y="489.71" width="234.36" height="115.16" rx="0" ry="0" opacity=".54"/>
   </g>
  </g>
  <g transform="matrix(.49 0 0 .49 491.6 424.97)" fill="#fff" fill-rule="evenodd">
   <g stroke="#fdfeff" stroke-linecap="round" stroke-linejoin="round">
    <rect transform="rotate(-90)" x="-676.16" y="300.2" width="24.602" height="89.602" rx="0" ry="0" opacity=".54" stroke-width="3.398"/>
    <rect x="356.21" y="653.58" width="32.574" height="172.57" rx="0" ry="0" opacity=".54" stroke-width="5.4262"/>
   </g>
   <g stroke="#fdfeff" stroke-linecap="round" stroke-linejoin="round">
    <rect transform="rotate(-90)" x="-676.16" y="300.2" width="24.602" height="89.602" rx="0" ry="0" opacity=".54" stroke-width="3.398"/>
    <rect x="356.21" y="653.58" width="32.574" height="172.57" rx="0" ry="0" opacity=".54" stroke-width="5.4262"/>
   </g>
   <g stroke="#fdfeff" stroke-linecap="round" stroke-linejoin="round">
    <rect transform="rotate(-90)" x="-676.16" y="300.2" width="24.602" height="89.602" rx="0" ry="0" opacity=".54" stroke-width="3.398"/>
    <rect x="356.21" y="653.58" width="32.574" height="172.57" rx="0" ry="0" opacity=".54" stroke-width="5.4262"/>
   </g>
   <g stroke="#fdfeff" stroke-linecap="round" stroke-linejoin="round">
    <rect transform="rotate(-90)" x="-676.16" y="300.2" width="24.602" height="89.602" rx="0" ry="0" opacity=".54" stroke-width="3.398"/>
    <rect x="356.21" y="653.58" width="32.574" height="172.57" rx="0" ry="0" opacity=".54" stroke-width="5.4262"/>
   </g>
   <path transform="translate(-27 373.27)" d="m281 291.09 73.268-46.301 3.4641 86.603z"/>
   <g stroke="#fdfeff" stroke-linecap="round" stroke-linejoin="round">
    <rect transform="rotate(-90)" x="-676.16" y="300.2" width="24.602" height="89.602" rx="0" ry="0" opacity=".54" stroke-width="3.398"/>
    <rect x="356.21" y="653.58" width="32.574" height="172.57" rx="0" ry="0" opacity=".54" stroke-width="5.4262"/>
   </g>
  </g>
  <g fill="none" stroke="#fdfeff" stroke-linecap="round" stroke-linejoin="round" stroke-width="5">
   <g transform="matrix(0 -1 -1 0 608.86 552.34)">
    <rect x="6.0609" y="489.71" width="234.36" height="115.16" rx="0" ry="0" opacity=".54"/>
    <rect x="6.0609" y="489.71" width="234.36" height="115.16" rx="0" ry="0" opacity=".54"/>
    <rect x="6.0609" y="489.71" width="234.36" height="115.16" rx="0" ry="0" opacity=".54"/>
   </g>
   <g transform="matrix(0 -1 1 0 -370.41 552.19)">
    <rect x="6.0609" y="489.71" width="234.36" height="115.16" rx="0" ry="0" opacity=".54"/>
    <rect x="6.0609" y="489.71" width="234.36" height="115.16" rx="0" ry="0" opacity=".54"/>
    <rect x="6.0609" y="489.71" width="234.36" height="115.16" rx="0" ry="0" opacity=".54"/>
   </g>
   <g transform="translate(230.4 -1.0711)">
    <g transform="matrix(0 -1 -1 0 608.86 552.34)">
     <rect x="6.0609" y="489.71" width="234.36" height="115.16" rx="0" ry="0" opacity=".54"/>
     <rect x="6.0609" y="489.71" width="234.36" height="115.16" rx="0" ry="0" opacity=".54"/>
     <rect x="6.0609" y="489.71" width="234.36" height="115.16" rx="0" ry="0" opacity=".54"/>
    </g>
    <g transform="matrix(0 -1 1 0 -370.41 552.19)">
     <rect x="6.0609" y="489.71" width="234.36" height="115.16" rx="0" ry="0" opacity=".54"/>
     <rect x="6.0609" y="489.71" width="234.36" height="115.16" rx="0" ry="0" opacity=".54"/>
     <rect x="6.0609" y="489.71" width="234.36" height="115.16" rx="0" ry="0" opacity=".54"/>
    </g>
   </g>
  </g>
  <rect transform="matrix(0,-1,-1,0,0,0)" x="-546.28" y="-581.16" width="234.36" height="115.16" rx="0" ry="0" fill="none" opacity=".54" stroke="#fdfeff" stroke-linecap="round" stroke-linejoin="round" stroke-width="5"/>
  <rect transform="matrix(0,-1,-1,0,0,0)" x="-546.28" y="-581.16" width="234.36" height="115.16" rx="0" ry="0" fill="none" opacity=".54" stroke="#fdfeff" stroke-linecap="round" stroke-linejoin="round" stroke-width="5"/>
  <rect transform="matrix(0,-1,-1,0,0,0)" x="-546.28" y="-581.16" width="234.36" height="115.16" rx="0" ry="0" fill="none" opacity=".54" stroke="#fdfeff" stroke-linecap="round" stroke-linejoin="round" stroke-width="5"/>
  <rect transform="rotate(-90)" x="-546.13" y="581.3" width="234.36" height="115.16" rx="0" ry="0" fill="none" opacity=".54" stroke="#fdfeff" stroke-linecap="round" stroke-linejoin="round" stroke-width="5"/>
  <rect transform="rotate(-90)" x="-546.13" y="581.3" width="234.36" height="115.16" rx="0" ry="0" fill="none" opacity=".54" stroke="#fdfeff" stroke-linecap="round" stroke-linejoin="round" stroke-width="5"/>
  <rect transform="rotate(-90)" x="-546.13" y="581.3" width="234.36" height="115.16" rx="0" ry="0" fill="none" opacity=".54" stroke="#fdfeff" stroke-linecap="round" stroke-linejoin="round" stroke-width="5"/>
  <rect transform="matrix(0,-1,-1,0,0,0)" x="-545.2" y="-811.55" width="234.36" height="115.16" rx="0" ry="0" fill="none" opacity=".54" stroke="#fdfeff" stroke-linecap="round" stroke-linejoin="round" stroke-width="5"/>
  <rect transform="matrix(0,-1,-1,0,0,0)" x="-545.2" y="-811.55" width="234.36" height="115.16" rx="0" ry="0" fill="none" opacity=".54" stroke="#fdfeff" stroke-linecap="round" stroke-linejoin="round" stroke-width="5"/>
  <rect transform="matrix(0,-1,-1,0,0,0)" x="-546.28" y="-811.55" width="234.36" height="115.16" rx="0" ry="0" fill="none" opacity=".54" stroke="#fdfeff" stroke-linecap="round" stroke-linejoin="round" stroke-width="5"/>
  <rect transform="rotate(-90)" x="-545.06" y="811.7" width="234.36" height="115.16" rx="0" ry="0" fill="none" opacity=".54" stroke="#fdfeff" stroke-linecap="round" stroke-linejoin="round" stroke-width="5"/>
  <rect transform="rotate(-90)" x="-545.06" y="811.7" width="234.36" height="115.16" rx="0" ry="0" fill="none" opacity=".54" stroke="#fdfeff" stroke-linecap="round" stroke-linejoin="round" stroke-width="5"/>
  <rect transform="rotate(-90)" x="-545.06" y="811.7" width="234.36" height="115.16" rx="0" ry="0" fill="none" opacity=".54" stroke="#fdfeff" stroke-linecap="round" stroke-linejoin="round" stroke-width="5"/>
  <rect transform="rotate(-90)" x="-545.06" y="925.7" width="234.36" height="115.16" rx="0" ry="0" fill="none" opacity=".54" stroke="#fdfeff" stroke-linecap="round" stroke-linejoin="round" stroke-width="5"/>
  <rect transform="rotate(-90)" x="-545.06" y="925.7" width="234.36" height="115.16" rx="0" ry="0" fill="none" opacity=".54" stroke="#fdfeff" stroke-linecap="round" stroke-linejoin="round" stroke-width="5"/>
  <rect transform="rotate(-90)" x="-546.28" y="925.7" width="234.36" height="115.16" rx="0" ry="0" fill="none" opacity=".54" stroke="#fdfeff" stroke-linecap="round" stroke-linejoin="round" stroke-width="5"/>
  <g transform="translate(0,-26)" fill="none" stroke="#fdfeff" stroke-linecap="round" stroke-linejoin="round" stroke-width="5">
   <g transform="translate(800,232)">
    <rect x="6.0609" y="489.71" width="234.36" height="115.16" rx="0" ry="0" opacity=".54"/>
    <rect x="6.0609" y="489.71" width="234.36" height="115.16" rx="0" ry="0" opacity=".54"/>
    <rect x="6.0609" y="489.71" width="234.36" height="115.16" rx="0" ry="0" opacity=".54"/>
   </g>
   <g transform="translate(800,346)">
    <rect x="6.0609" y="489.71" width="234.36" height="115.16" rx="0" ry="0" opacity=".54"/>
    <rect x="6.0609" y="489.71" width="234.36" height="115.16" rx="0" ry="0" opacity=".54"/>
    <rect x="6.0609" y="489.71" width="234.36" height="115.16" rx="0" ry="0" opacity=".54"/>
   </g>
   <g transform="translate(800,462)">
    <rect x="6.0609" y="489.71" width="234.36" height="115.16" rx="0" ry="0" opacity=".54"/>
    <rect x="6.0609" y="489.71" width="234.36" height="115.16" rx="0" ry="0" opacity=".54"/>
    <rect x="6.0609" y="489.71" width="234.36" height="115.16" rx="0" ry="0" opacity=".54"/>
   </g>
  </g>
  <g transform="matrix(.49 0 0 .49 491.6 424.97)" fill="#fff" fill-rule="evenodd">
   <g stroke="#fdfeff" stroke-linecap="round" stroke-linejoin="round">
    <rect transform="rotate(-90)" x="-676.16" y="300.2" width="24.602" height="89.602" rx="0" ry="0" opacity=".54" stroke-width="3.398"/>
    <rect x="356.21" y="653.58" width="32.574" height="172.57" rx="0" ry="0" opacity=".54" stroke-width="5.4262"/>
   </g>
   <g stroke="#fdfeff" stroke-linecap="round" stroke-linejoin="round">
    <rect transform="rotate(-90)" x="-676.16" y="300.2" width="24.602" height="89.602" rx="0" ry="0" opacity=".54" stroke-width="3.398"/>
    <rect x="356.21" y="653.58" width="32.574" height="172.57" rx="0" ry="0" opacity=".54" stroke-width="5.4262"/>
   </g>
   <g stroke="#fdfeff" stroke-linecap="round" stroke-linejoin="round">
    <rect transform="rotate(-90)" x="-676.16" y="300.2" width="24.602" height="89.602" rx="0" ry="0" opacity=".54" stroke-width="3.398"/>
    <rect x="356.21" y="653.58" width="32.574" height="172.57" rx="0" ry="0" opacity=".54" stroke-width="5.4262"/>
   </g>
   <g stroke="#fdfeff" stroke-linecap="round" stroke-linejoin="round">
    <rect transform="rotate(-90)" x="-676.16" y="300.2" width="24.602" height="89.602" rx="0" ry="0" opacity=".54" stroke-width="3.398"/>
    <rect x="356.21" y="653.58" width="32.574" height="172.57" rx="0" ry="0" opacity=".54" stroke-width="5.4262"/>
   </g>
   <path transform="translate(-27 373.27)" d="m281 291.09 73.268-46.301 3.4641 86.603z"/>
   <g stroke="#fdfeff" stroke-linecap="round" stroke-linejoin="round">
    <rect transform="rotate(-90)" x="-676.16" y="300.2" width="24.602" height="89.602" rx="0" ry="0" opacity=".54" stroke-width="3.398"/>
    <rect x="356.21" y="653.58" width="32.574" height="172.57" rx="0" ry="0" opacity=".54" stroke-width="5.4262"/>
   </g>
  </g>
  <g fill="#fff" fill-rule="evenodd">
   <path transform="matrix(.49514 .32614 -.32614 .49514 294.27 643.33)" d="m281 291.09 73.268-46.301 3.4641 86.603z"/>
   <rect transform="scale(-1)" x="-371.35" y="-887.71" width="15.961" height="84.561" rx="0" ry="0" opacity=".54" stroke="#fdfeff" stroke-linecap="round" stroke-linejoin="round" stroke-width="2.6588"/>
   <rect transform="scale(-1)" x="-371.35" y="-887.71" width="15.961" height="84.561" rx="0" ry="0" opacity=".54" stroke="#fdfeff" stroke-linecap="round" stroke-linejoin="round" stroke-width="2.6588"/>
   <rect transform="scale(-1)" x="-371.35" y="-887.71" width="15.961" height="84.561" rx="0" ry="0" opacity=".54" stroke="#fdfeff" stroke-linecap="round" stroke-linejoin="round" stroke-width="2.6588"/>
   <rect transform="scale(-1)" x="-371.35" y="-887.71" width="15.961" height="84.561" rx="0" ry="0" opacity=".54" stroke="#fdfeff" stroke-linecap="round" stroke-linejoin="round" stroke-width="2.6588"/>
  </g>
  <text x="51.496094" y="362.95203" fill="#000000" font-family="Sans" font-size="40px" letter-spacing="0px" word-spacing="0px" line-height="125%" xml:space="preserve"><tspan x="51.496094" y="362.95203" fill="#ffffff">1</tspan></text>
  <text x="51.496094" y="362.95203" fill="#000000" font-family="Sans" font-size="40px" letter-spacing="0px" word-spacing="0px" line-height="125%" xml:space="preserve"><tspan x="51.496094" y="362.95203" fill="#ffffff">1</tspan></text>
  <text x="171.49609" y="362.95203" fill="#000000" font-family="Sans" font-size="40px" letter-spacing="0px" word-spacing="0px" line-height="125%" xml:space="preserve"><tspan x="171.49609" y="362.95203" fill="#ffffff">2</tspan></text>
  <text x="283.49609" y="362.95203" fill="#000000" font-family="Sans" font-size="40px" letter-spacing="0px" word-spacing="0px" line-height="125%" xml:space="preserve"><tspan x="283.49609" y="362.95203" fill="#ffffff">3</tspan></text>
  <text x="397.49609" y="362.95203" fill="#000000" font-family="Sans" font-size="40px" letter-spacing="0px" word-spacing="0px" line-height="125%" xml:space="preserve"><tspan x="397.49609" y="362.95203" fill="#ffffff">4</tspan></text>
  <text x="515.49609" y="362.95203" fill="#000000" font-family="Sans" font-size="40px" letter-spacing="0px" word-spacing="0px" line-height="125%" xml:space="preserve"><tspan x="515.49609" y="362.95203" fill="#ffffff">5</tspan></text>
  <text x="629.49609" y="362.95203" fill="#000000" font-family="Sans" font-size="40px" letter-spacing="0px" word-spacing="0px" line-height="125%" xml:space="preserve"><tspan x="629.49609" y="362.95203" fill="#ffffff">6</tspan></text>
  <text x="745.49609" y="362.95203" fill="#000000" font-family="Sans" font-size="40px" letter-spacing="0px" word-spacing="0px" line-height="125%" xml:space="preserve"><tspan x="745.49609" y="362.95203" fill="#ffffff">7</tspan></text>
  <text x="859.49609" y="362.95203" fill="#000000" font-family="Sans" font-size="40px" letter-spacing="0px" word-spacing="0px" line-height="125%" xml:space="preserve"><tspan x="859.49609" y="362.95203" fill="#ffffff">8</tspan></text>
  <text x="971.49609" y="362.95203" fill="#000000" font-family="Sans" font-size="40px" letter-spacing="0px" word-spacing="0px" line-height="125%" xml:space="preserve"><tspan x="971.49609" y="362.95203" fill="#ffffff">9</tspan></text>
  <text transform="rotate(90)" x="723.73413" y="-989.23767" fill="#000000" font-family="Sans" font-size="40px" letter-spacing="0px" word-spacing="0px" line-height="125%" xml:space="preserve"><tspan x="723.73413" y="-989.23767" fill="#ffffff">10</tspan></text>
  <text transform="rotate(90)" x="831.73413" y="-989.49475" fill="#000000" font-family="Sans" font-size="40px" letter-spacing="0px" word-spacing="0px" line-height="125%" xml:space="preserve"><tspan x="831.73413" y="-989.49475" fill="#ffffff">11</tspan></text>
  <text transform="rotate(90)" x="951.73413" y="-989.7804" fill="#000000" font-family="Sans" font-size="40px" letter-spacing="0px" word-spacing="0px" line-height="125%" xml:space="preserve"><tspan x="951.73413" y="-989.7804" fill="#ffffff">12</tspan></text>
  <text transform="rotate(-88.463)" x="-999.21863" y="75.329262" fill="#000000" font-family="Sans" font-size="40px" letter-spacing="0px" word-spacing="0px" line-height="125%" xml:space="preserve"><tspan x="-999.21863" y="75.329262" fill="#ffffff">13</tspan></text>
  <text transform="rotate(-88.463)" x="-879.26257" y="72.106606" fill="#000000" font-family="Sans" font-size="40px" letter-spacing="0px" word-spacing="0px" line-height="125%" xml:space="preserve"><tspan x="-879.26257" y="72.106606" fill="#ffffff">14</tspan></text>
  <text transform="rotate(-88.463)" x="-771.30212" y="69.206215" fill="#000000" font-family="Sans" font-size="40px" letter-spacing="0px" word-spacing="0px" line-height="125%" xml:space="preserve"><tspan x="-771.30212" y="69.206215" fill="#ffffff">15</tspan></text>
 </g>
</svg>
